<?xml version="1.0" encoding="UTF-8"?>
<svg id="Capa_1" data-name="Capa 1" xmlns="http://www.w3.org/2000/svg" viewBox="0 0 1920 1080">
  <defs>
    <style>
      .cls-1 {
        fill: #faa275;
      }

      .cls-2 {
        stroke: #0655d5;
        stroke-miterlimit: 10;
        stroke-width: 1.32px;
      }

      .cls-2, .cls-3 {
        fill: #0655d5;
      }
    </style>
  </defs>
  <g>
    <rect class="cls-2" x="231.4" y="653" width="147.3" height="27.1"/>
    <path class="cls-2" d="M209.21,336.26c93.31-92.89,251.47-10.85,230.45,119.39-8.62,53.41-52.65,79.23-59.79,135.87-1.29,10.21-.32,22.15-1.93,31.75-1.88,11.24-14.37,12.33-23.41,12.63-34.45,1.16-69.04-1.66-103.53.02-9.23-.27-17.81-5-18.8-14.88-2.26-22.62-.84-37.67-8.82-60.15-12.21-34.41-39.5-54.83-49.34-90.99-13.01-47.82.16-98.79,35.17-133.65ZM295.38,329.8c-73.13,5.76-116.16,87.66-81.25,152.14,5.62,10.38,13.77,18.9,20.32,28.6,18.31,27.12,28.32,59.01,30.17,91.72l80.13.64,1.21-1.2c1.23-27.1,9.28-53.56,22.14-77.29,11.55-21.31,28.88-37.25,35.92-61.11,21.07-71.4-34.74-139.31-108.63-133.49Z"/>
    <path class="cls-1" d="M283.41,471.46c-2.81-3.63-6.12-6.89-9.18-10.31-2.2-2.47-4.31-5-6.43-7.55-.22-.27-1.47-1.86-.23-.25-.5-.65-.99-1.3-1.47-1.96-1.24-1.69-2.44-3.41-3.58-5.16-2.12-3.26-4.07-6.63-5.75-10.14-.37-.78-.76-1.58-1.09-2.39.68,1.63-.11-.42-.19-.63-.73-2.08-1.41-4.16-1.93-6.3-1.41-5.8-1.36-11.27.41-17.74.24-.89.52-1.77.82-2.64.67-1.96-1.52,2.4.37-.85.43-.74.79-1.5,1.28-2.21-.28.41-1.49,1.49.48-.57,2.12-2.23,4.57-2.65,7.17-2.63.9,0,1.79.05,2.69.14,2.28.22-2.56-.77,1.04.22,1.44.4,2.9.7,4.32,1.16.55.18,2.73,1.34,3.22,1.18-1.75.58-2.66-1.44-1.41-.57.67.47,1.49.77,2.21,1.18.81.47,1.6.96,2.36,1.51,1.96,1.41-1.85-1.81,1.15.98,1.28,1.2,2.51,2.45,3.62,3.81-1.12-1.36.18.26.33.47.59.85,1.15,1.72,1.69,2.61,1.03,1.7,1.93,3.45,2.8,5.24.16.33,1.11,2.52.48,1.03-.72-1.71.53,1.42.53,1.42.44,1.18.84,2.38,1.23,3.58,1.22,3.77,2.29,7.6,3.24,11.46,3.32,13.5,3.11,29.6,11.15,41.46,9.44,13.92,27.89,20.29,44.17,16.97,27.39-5.59,39.27-39.37,34.61-64.09-3.11-16.51-13.5-31.28-24.53-43.52-4.19-4.65-8.69-9.03-13.37-13.19-2.35-2.08-5.05-3.96-7.21-6.24-11.26-11.9-29.2,6.09-17.96,17.96,5.24,5.54,11.64,10.06,16.98,15.58,2.24,2.32,4.42,4.71,6.5,7.18.97,1.15,1.94,2.32,2.86,3.52-1.43-1.84.12.18.45.65.56.79,1.14,1.58,1.69,2.38,2,2.91,3.85,5.93,5.48,9.06.72,1.39,1.42,2.8,2.04,4.24-.93-2.15.06.21.25.77.31.92.65,1.83.93,2.76.57,1.86.95,3.73,1.4,5.62.12.49.33,2.48.06.05.08.77.15,1.53.2,2.3.09,1.54.09,3.1,0,4.64,0-.1-.43,3.66-.14,1.82.22-1.4-.48,2.01-.59,2.42-.88,3.39-2.1,6.73-3.15,10.07-.79,2.49,1.35-2.52-.31.71-.51.99-1.01,1.98-1.58,2.93-.36.6-2.62,3.65-1.57,2.41,1.14-1.35-.23.21-.53.51-.7.68-1.41,1.36-2.1,2.04-1.27,1.26,1.73-1.09.18-.11-.75.47-1.46.97-2.23,1.4-.63.35-1.29.7-1.95.98,2.17-.93.24-.15-.19-.06-.76.16-1.59.41-2.35.62-3.54.96,1.1.1-1.15.19-.62.03-4.22-.15-2.3.04,1.76.18-2.83-.57-3.53-.75-1.63-.4-3.27-.85-4.82-1.48,1.78.72-3.23-1.98-2.44-1.37.68.52-3.27-3.53-2.03-2,1.04,1.28-1.1-1.87-1.46-2.46-.3-.5-.52-1.07-.77-1.59,1.32,2.79.44,1.18.31.53-.62-3.05-1.62-6.02-2.18-9.1-2.8-15.4-5.38-30.74-11.9-45.11s-18.35-25.56-33.66-29.72c-9.7-2.63-20.38-2.63-29.48,2.02-8.98,4.59-14.74,13.21-17.59,22.68-5.64,18.73-1.06,38.1,8.77,54.54,7.5,12.56,18.05,22.22,26.9,33.64,4.21,5.43,13.54,4.42,17.96,0,5.36-5.36,4.22-12.52,0-17.96h0Z"/>
    <path class="cls-1" d="M305.97,535.24c12.87,0,21.45,7.97,21.45,19.91s-8.58,19.92-21.45,19.92-21.44-7.97-21.44-19.92,8.58-19.91,21.44-19.91Z"/>
    <rect class="cls-2" x="231.4" y="602.9" width="147.3" height="33.29"/>
  </g>
  <path class="cls-3" d="M534.72,391.59h48.99v285.8h-48.99v-285.8Z"/>
  <path class="cls-3" d="M662.9,677.38h-48.99v-105.34c0-61.65,40.83-102.88,104.93-102.88s102.89,41.23,102.89,102.88v105.34h-49.4v-108.6c0-32.26-22.05-53.89-55.12-53.89s-54.3,22.04-54.3,53.89v108.6Z"/>
  <path class="cls-3" d="M942.96,468.75c30.21,0,54.3,3.27,76.35,11.43v44.1c-14.7-5.31-44.91-14.7-80.43-14.7-26.95,0-39.61,6.53-39.61,18.37,0,35.52,128.61,15.1,128.61,88.59,0,42.46-33.07,65.32-92.68,65.32-30.21,0-54.3-3.26-76.76-11.43v-44.1c14.7,5.31,44.91,14.7,80.43,14.7,27.35,0,39.6-9.39,39.6-21.23,0-35.11-128.2-15.11-128.2-88.6,0-42.46,33.07-62.47,92.68-62.47Z"/>
  <path class="cls-3" d="M1085.02,391.59c17.15,0,28.58,10.61,28.58,26.54s-11.43,26.54-28.58,26.54-28.58-10.61-28.58-26.54,11.43-26.54,28.58-26.54ZM1060.52,473.24h48.99v204.14h-48.99v-204.14Z"/>
  <path class="cls-3" d="M1244.24,469.16c60.43,0,101.26,37.56,101.26,91.45s-32.26,73.49-52.26,73.49v4.08c22.86,0,54.29,14.7,54.29,57.97,0,54.3-39.19,87.37-101.25,87.37s-101.26-35.93-101.26-95.94h49c-.41,32.25,18.37,49.81,52.26,49.81s52.26-15.92,52.26-44.5c0-31.84-30.62-35.93-54.31-35.93-60.84,0-101.25-37.56-101.25-93.9s40.42-93.9,101.25-93.9ZM1244.24,611.24c35.93,0,52.26-14.7,52.26-48.18,0-29.39-20.42-48.17-52.26-48.17s-52.67,18.78-52.67,48.17,20.82,48.18,52.67,48.18ZM1333.65,422.21c18.37,0,30.62,11.02,30.62,27.76s-12.25,27.76-30.62,27.76-30.62-11.02-30.62-27.76,12.25-27.76,30.62-27.76Z"/>
  <path class="cls-3" d="M1443.46,677.38h-49v-285.8h48.72c.09,41.64.19,83.29.28,124.93h4.08c0-20,20.42-47.36,66.15-47.36,57.16,0,88.6,37.97,88.6,95.94v112.28h-49.4v-111.05c0-32.26-18.79-51.03-51.85-51.03-37.57,0-57.57,23.68-57.57,55.94v106.15Z"/>
  <path class="cls-3" d="M1631.66,552.04v-133.92h49.67c-.23,19.19-.45,38.38-.68,57.57h70.23v43.68h-70.23v40.01c0,49.4,17.14,69.81,70.23,69.81v48.18c-85.33,0-119.22-40.83-119.22-125.34Z"/>
</svg>